<svg width="60" height="72" viewBox="0 0 60 72" fill="none" xmlns="http://www.w3.org/2000/svg">
<g filter="url(#filter0_d)">
<path d="M28.7224 29H7.51836L22.3004 5.858C21.2364 5.706 20.1977 5.60467 19.1844 5.554C18.171 5.478 17.0184 5.44 15.7264 5.44C14.941 5.44 14.2697 5.46533 13.7124 5.516C13.1804 5.54133 12.6864 5.61733 12.2304 5.744C11.7744 5.87066 11.3057 6.048 10.8244 6.276C10.3684 6.504 9.82369 6.808 9.19036 7.188L11.1284 2.59H28.8744L14.2064 25.618C15.777 25.7447 17.297 25.846 18.7664 25.922C20.2357 25.998 21.5404 26.036 22.6804 26.036C23.4657 26.036 24.2004 25.998 24.8844 25.922C25.5684 25.846 26.227 25.732 26.8604 25.58C27.4937 25.4027 28.127 25.1873 28.7604 24.934C29.3937 24.6553 30.0777 24.3133 30.8124 23.908L28.7224 29ZM18.4946 40.972L14.3906 51.46H22.5606L18.4946 40.972ZM13.4406 54.044L11.1606 60.162C10.8566 60.9727 10.7046 61.6567 10.7046 62.214C10.7046 62.594 10.8059 62.9233 11.0086 63.202C11.2366 63.4553 11.6166 63.7213 12.1486 64H4.77657C5.23257 63.696 5.62524 63.4173 5.95457 63.164C6.2839 62.8853 6.57524 62.556 6.82857 62.176C7.10724 61.7707 7.37324 61.2893 7.62657 60.732C7.8799 60.1747 8.17124 59.4653 8.50057 58.604L15.5686 40.972C15.8726 40.1867 16.0246 39.5787 16.0246 39.148C16.0246 38.7933 15.9359 38.502 15.7586 38.274C15.5812 38.046 15.2646 37.818 14.8086 37.59H21.1926L29.6286 58.604C29.9326 59.3893 30.2239 60.0607 30.5026 60.618C30.7812 61.1753 31.0599 61.6693 31.3386 62.1C31.6426 62.5053 31.9592 62.86 32.2886 63.164C32.6432 63.468 33.0486 63.7467 33.5046 64H25.1826C25.7906 63.6453 26.1832 63.3793 26.3606 63.202C26.5379 62.9993 26.6266 62.7333 26.6266 62.404C26.6266 62.3027 26.6139 62.2013 26.5886 62.1C26.5886 61.9987 26.5632 61.872 26.5126 61.72C26.4619 61.568 26.3859 61.3653 26.2846 61.112C26.2086 60.8587 26.0946 60.542 25.9426 60.162L23.5866 54.044H13.4406Z" fill="#C6AD64"/>
</g>
<g filter="url(#filter1_d)">
<path d="M45.5288 46.4503C46.2339 45.1374 47.3771 45.1374 48.0822 46.4503L53.9429 57.3634C54.5129 58.4248 54.6955 60.0101 54.4093 61.4134L54.2425 62.2314C54.0273 63.2862 53.4722 63.9637 52.8669 63.91C52.519 63.8792 52.1897 63.6079 51.9434 63.1493L45.5288 51.2049C44.8237 49.8919 44.8237 47.7632 45.5288 46.4503Z" fill="#C6AD64"/>
<path d="M53.2892 9.3411e-06C54.271 9.54384e-06 55.0669 1.4821 55.0669 3.31035L55.0669 60.6897C55.0669 62.5179 54.271 64 53.2892 64C52.3073 64 51.5114 62.5179 51.5114 60.6897L51.5114 3.31035C51.5114 1.4821 52.3073 9.13835e-06 53.2892 9.3411e-06Z" fill="#C6AD64"/>
</g>
<defs>
<filter id="filter0_d" x="0.776611" y="2.59" width="36.728" height="69.41" filterUnits="userSpaceOnUse" color-interpolation-filters="sRGB">
<feFlood flood-opacity="0" result="BackgroundImageFix"/>
<feColorMatrix in="SourceAlpha" type="matrix" values="0 0 0 0 0 0 0 0 0 0 0 0 0 0 0 0 0 0 127 0"/>
<feOffset dy="4"/>
<feGaussianBlur stdDeviation="2"/>
<feColorMatrix type="matrix" values="0 0 0 0 0 0 0 0 0 0 0 0 0 0 0 0 0 0 0.25 0"/>
<feBlend mode="normal" in2="BackgroundImageFix" result="effect1_dropShadow"/>
<feBlend mode="normal" in="SourceGraphic" in2="effect1_dropShadow" result="shape"/>
</filter>
<filter id="filter1_d" x="41" y="0" width="18.067" height="72" filterUnits="userSpaceOnUse" color-interpolation-filters="sRGB">
<feFlood flood-opacity="0" result="BackgroundImageFix"/>
<feColorMatrix in="SourceAlpha" type="matrix" values="0 0 0 0 0 0 0 0 0 0 0 0 0 0 0 0 0 0 127 0"/>
<feOffset dy="4"/>
<feGaussianBlur stdDeviation="2"/>
<feColorMatrix type="matrix" values="0 0 0 0 0 0 0 0 0 0 0 0 0 0 0 0 0 0 0.25 0"/>
<feBlend mode="normal" in2="BackgroundImageFix" result="effect1_dropShadow"/>
<feBlend mode="normal" in="SourceGraphic" in2="effect1_dropShadow" result="shape"/>
</filter>
</defs>
</svg>
