<svg width="60" height="72" viewBox="0 0 60 72" fill="none" xmlns="http://www.w3.org/2000/svg">
<g filter="url(#filter0_d)">
<path d="M18.4946 5.972L14.3906 16.46H22.5606L18.4946 5.972ZM13.4406 19.044L11.1606 25.162C10.8566 25.9727 10.7046 26.6567 10.7046 27.214C10.7046 27.594 10.8059 27.9233 11.0086 28.202C11.2366 28.4553 11.6166 28.7213 12.1486 29H4.77657C5.23257 28.696 5.62524 28.4173 5.95457 28.164C6.2839 27.8853 6.57524 27.556 6.82857 27.176C7.10724 26.7707 7.37324 26.2893 7.62657 25.732C7.8799 25.1747 8.17124 24.4653 8.50057 23.604L15.5686 5.972C15.8726 5.18667 16.0246 4.57867 16.0246 4.148C16.0246 3.79333 15.9359 3.502 15.7586 3.274C15.5812 3.046 15.2646 2.818 14.8086 2.59H21.1926L29.6286 23.604C29.9326 24.3893 30.2239 25.0607 30.5026 25.618C30.7812 26.1753 31.0599 26.6693 31.3386 27.1C31.6426 27.5053 31.9592 27.86 32.2886 28.164C32.6432 28.468 33.0486 28.7467 33.5046 29H25.1826C25.7906 28.6453 26.1832 28.3793 26.3606 28.202C26.5379 27.9993 26.6266 27.7333 26.6266 27.404C26.6266 27.3027 26.6139 27.2013 26.5886 27.1C26.5886 26.9987 26.5632 26.872 26.5126 26.72C26.4619 26.568 26.3859 26.3653 26.2846 26.112C26.2086 25.8587 26.0946 25.542 25.9426 25.162L23.5866 19.044H13.4406ZM28.7224 64H7.51836L22.3004 40.858C21.2364 40.706 20.1977 40.6047 19.1844 40.554C18.171 40.478 17.0184 40.44 15.7264 40.44C14.941 40.44 14.2697 40.4653 13.7124 40.516C13.1804 40.5413 12.6864 40.6173 12.2304 40.744C11.7744 40.8707 11.3057 41.048 10.8244 41.276C10.3684 41.504 9.82369 41.808 9.19036 42.188L11.1284 37.59H28.8744L14.2064 60.618C15.777 60.7447 17.297 60.846 18.7664 60.922C20.2357 60.998 21.5404 61.036 22.6804 61.036C23.4657 61.036 24.2004 60.998 24.8844 60.922C25.5684 60.846 26.227 60.732 26.8604 60.58C27.4937 60.4027 28.127 60.1873 28.7604 59.934C29.3937 59.6553 30.0777 59.3133 30.8124 58.908L28.7224 64Z" fill="#C6AD64"/>
</g>
<g filter="url(#filter1_d)">
<path d="M45.5288 46.4503C46.2339 45.1374 47.3771 45.1374 48.0822 46.4503L53.9429 57.3634C54.5129 58.4248 54.6955 60.0101 54.4093 61.4134L54.2425 62.2314C54.0273 63.2862 53.4722 63.9637 52.8669 63.91C52.519 63.8792 52.1897 63.6079 51.9434 63.1493L45.5288 51.2049C44.8237 49.8919 44.8237 47.7632 45.5288 46.4503Z" fill="#C6AD64"/>
<path d="M53.2892 9.3411e-06C54.271 9.54384e-06 55.0669 1.4821 55.0669 3.31035L55.0669 60.6897C55.0669 62.5179 54.271 64 53.2892 64C52.3073 64 51.5114 62.5179 51.5114 60.6897L51.5114 3.31035C51.5114 1.4821 52.3073 9.13835e-06 53.2892 9.3411e-06Z" fill="#C6AD64"/>
</g>
<defs>
<filter id="filter0_d" x="0.776611" y="2.59" width="36.728" height="69.41" filterUnits="userSpaceOnUse" color-interpolation-filters="sRGB">
<feFlood flood-opacity="0" result="BackgroundImageFix"/>
<feColorMatrix in="SourceAlpha" type="matrix" values="0 0 0 0 0 0 0 0 0 0 0 0 0 0 0 0 0 0 127 0"/>
<feOffset dy="4"/>
<feGaussianBlur stdDeviation="2"/>
<feColorMatrix type="matrix" values="0 0 0 0 0 0 0 0 0 0 0 0 0 0 0 0 0 0 0.25 0"/>
<feBlend mode="normal" in2="BackgroundImageFix" result="effect1_dropShadow"/>
<feBlend mode="normal" in="SourceGraphic" in2="effect1_dropShadow" result="shape"/>
</filter>
<filter id="filter1_d" x="41" y="0" width="18.067" height="72" filterUnits="userSpaceOnUse" color-interpolation-filters="sRGB">
<feFlood flood-opacity="0" result="BackgroundImageFix"/>
<feColorMatrix in="SourceAlpha" type="matrix" values="0 0 0 0 0 0 0 0 0 0 0 0 0 0 0 0 0 0 127 0"/>
<feOffset dy="4"/>
<feGaussianBlur stdDeviation="2"/>
<feColorMatrix type="matrix" values="0 0 0 0 0 0 0 0 0 0 0 0 0 0 0 0 0 0 0.25 0"/>
<feBlend mode="normal" in2="BackgroundImageFix" result="effect1_dropShadow"/>
<feBlend mode="normal" in="SourceGraphic" in2="effect1_dropShadow" result="shape"/>
</filter>
</defs>
</svg>
