<svg width="23" height="14" viewBox="0 0 23 14" fill="none" xmlns="http://www.w3.org/2000/svg">
<path d="M2 4L1.29289 3.29289L0.585787 4L1.29289 4.70711L2 4ZM1 14H18V12H1V14ZM23 9V8H21V9H23ZM18 3H3.5V5H18V3ZM23 8C23 5.23858 20.7614 3 18 3V5C19.6569 5 21 6.34315 21 8H23ZM18 14C20.7614 14 23 11.7614 23 9H21C21 10.6569 19.6569 12 18 12V14ZM5.70711 6.29289L2.70711 3.29289L1.29289 4.70711L4.29289 7.70711L5.70711 6.29289ZM2.70711 4.70711L5.70711 1.70711L4.29289 0.292893L1.29289 3.29289L2.70711 4.70711Z" fill="white" fill-opacity="0.8"/>
</svg>
